<?xml version="1.0" standalone="no"?>
<!DOCTYPE svg PUBLIC "-//W3C//DTD SVG 20010904//EN"
 "http://www.w3.org/TR/2001/REC-SVG-20010904/DTD/svg10.dtd">
<svg version="1.0" xmlns="http://www.w3.org/2000/svg"
 width="1500.000000pt" height="1500.000000pt" viewBox="0 0 1500.000000 1500.000000"
 preserveAspectRatio="xMidYMid meet">
<metadata>
Created by potrace 1.11, written by Peter Selinger 2001-2013
</metadata>
<g transform="translate(0.000000,1500.000000) scale(0.100000,-0.100000)"
fill="#000000" stroke="none">
<path d="M6297 14734 c-204 -49 -366 -204 -438 -419 -11 -33 -14 -491 -17
-2630 -2 -2340 -1 -2598 13 -2669 82 -407 539 -602 901 -385 115 70 222 217
258 356 15 56 16 311 14 2685 l-3 2623 -24 60 c-77 192 -232 331 -426 380 -73
18 -200 18 -278 -1z"/>
<path d="M8420 14735 c-193 -53 -345 -190 -421 -380 l-24 -60 -3 -2623 c-2
-2920 -8 -2675 66 -2817 97 -184 280 -301 492 -312 245 -13 459 112 568 332
66 133 62 -49 62 2767 0 1726 -4 2574 -11 2617 -33 209 -190 390 -399 462 -85
29 -250 36 -330 14z"/>
<path d="M4255 12194 c-135 -29 -211 -69 -371 -197 -1214 -976 -1980 -2396
-2129 -3948 -35 -354 -30 -840 11 -1194 249 -2173 1678 -4003 3724 -4765 609
-228 1214 -342 1885 -357 2068 -45 3985 1006 5062 2777 401 660 661 1387 778
2177 63 430 71 1006 19 1463 -165 1449 -859 2763 -1965 3721 -292 253 -400
313 -579 325 -339 23 -621 -241 -622 -581 -1 -101 14 -169 58 -262 43 -90 106
-159 253 -278 948 -763 1544 -1852 1686 -3080 35 -303 31 -756 -11 -1080 -180
-1414 -1018 -2672 -2259 -3393 -530 -308 -1158 -513 -1800 -587 -302 -35 -751
-31 -1080 11 -1511 189 -2859 1151 -3529 2519 -241 491 -387 991 -451 1540
-22 191 -31 611 -16 805 75 1006 429 1876 1080 2660 132 158 400 424 556 550
196 159 275 241 317 330 46 96 61 163 60 265 -1 327 -266 589 -592 584 -36 -1
-74 -3 -85 -5z"/>
<path d="M6029 8295 c-36 -20 -62 -77 -53 -118 11 -50 118 -149 206 -190 95
-45 164 -61 264 -60 151 2 291 61 394 169 61 64 62 66 57 111 -7 66 -42 98
-106 98 -45 0 -53 -4 -105 -53 -82 -78 -130 -97 -246 -97 -82 0 -103 4 -150
26 -30 14 -73 44 -95 66 -65 65 -110 78 -166 48z"/>
<path d="M8165 8301 c-35 -15 -57 -49 -63 -96 -5 -47 -5 -47 65 -115 110 -108
238 -161 387 -163 100 -1 169 15 264 60 88 41 195 140 206 190 14 64 -42 133
-109 133 -35 0 -62 -16 -110 -63 -22 -22 -65 -52 -95 -66 -47 -22 -69 -26
-150 -26 -113 0 -165 20 -247 98 -54 51 -104 67 -148 48z"/>
<path d="M5678 7914 c-30 -16 -58 -61 -58 -94 0 -37 26 -74 107 -150 148 -141
312 -227 518 -272 98 -21 324 -16 426 10 212 52 427 181 539 323 54 69 55 116
5 166 -33 33 -39 35 -80 31 -40 -5 -55 -15 -139 -95 -79 -76 -111 -98 -197
-141 -137 -67 -215 -85 -359 -85 -233 0 -400 70 -587 246 -89 83 -117 93 -175
61z"/>
<path d="M7785 7897 c-67 -67 -39 -143 97 -259 129 -110 267 -183 427 -225 83
-23 116 -26 251 -26 136 0 167 3 255 26 179 48 325 130 458 257 108 102 124
138 92 200 -18 35 -62 60 -105 60 -25 0 -47 -15 -113 -77 -187 -176 -353 -246
-587 -246 -144 -1 -221 18 -359 85 -86 43 -118 65 -197 141 -84 80 -99 90
-139 95 -41 4 -47 2 -80 -31z"/>
<path d="M5303 7515 c-33 -33 -35 -39 -30 -80 4 -37 15 -57 61 -109 110 -126
282 -254 451 -336 202 -99 364 -139 601 -147 l162 -6 50 -73 c28 -40 78 -104
111 -142 40 -47 56 -72 47 -75 -7 -3 -57 -11 -110 -17 -140 -18 -422 -8 -551
20 -363 77 -658 244 -925 521 -88 91 -99 99 -133 99 -74 0 -117 -42 -117 -115
0 -41 55 -111 181 -229 479 -451 1136 -627 1785 -479 l71 16 66 -56 c36 -30
102 -81 147 -113 45 -31 78 -60 73 -64 -14 -14 -176 -67 -283 -93 -186 -46
-319 -61 -525 -61 -356 0 -660 71 -975 229 -229 114 -390 233 -593 437 -145
145 -148 148 -191 148 -54 0 -92 -27 -105 -77 -14 -50 2 -83 85 -174 316 -347
737 -600 1189 -714 218 -55 342 -69 590 -69 236 0 356 13 555 60 159 37 335
98 459 158 l51 24 51 -24 c413 -200 940 -270 1419 -188 232 39 429 104 655
214 274 133 513 312 711 530 91 101 107 132 93 183 -14 50 -51 77 -107 77 -44
0 -46 -1 -164 -125 -302 -314 -643 -517 -1043 -620 -202 -52 -333 -69 -545
-69 -191 0 -307 11 -469 46 -108 23 -337 94 -346 107 -3 5 31 35 76 66 44 31
110 82 146 112 l65 56 97 -21 c353 -78 694 -60 1036 53 278 91 519 235 729
435 124 118 176 185 176 226 0 72 -43 114 -116 114 -32 0 -47 -12 -152 -118
-220 -222 -430 -355 -702 -446 -176 -58 -284 -77 -487 -83 -162 -5 -359 7
-386 24 -4 2 15 30 43 61 28 31 78 96 112 143 l61 86 161 6 c237 8 399 48 601
147 176 86 350 216 459 344 38 45 50 67 54 101 4 41 1 48 -31 80 -29 29 -42
35 -77 35 -39 0 -47 -6 -158 -112 -205 -197 -394 -299 -655 -355 -116 -25
-380 -25 -497 1 -250 54 -467 172 -648 353 -103 103 -117 113 -162 113 -45 0
-62 -12 -164 -114 -181 -182 -399 -299 -671 -358 -93 -20 -371 -17 -475 5
-257 55 -447 158 -652 355 -111 106 -119 112 -158 112 -35 0 -48 -6 -77 -35z
m2238 -271 c18 -19 67 -60 107 -91 39 -31 72 -59 72 -63 0 -10 -210 -210 -220
-210 -10 0 -220 200 -220 210 0 4 33 32 73 63 39 31 88 72 106 91 19 20 38 36
41 36 3 0 22 -16 41 -36z m-354 -379 c64 -64 114 -117 112 -119 -11 -11 -218
-108 -251 -118 l-38 -11 -55 60 c-46 51 -121 142 -157 189 -6 8 23 21 89 43
54 17 116 40 138 50 22 11 42 20 43 20 2 1 56 -51 119 -114z m795 91 c30 -14
94 -37 141 -51 l87 -27 -28 -39 c-16 -21 -64 -80 -108 -130 -73 -83 -81 -90
-108 -85 -29 6 -266 115 -266 123 0 3 220 229 226 232 1 1 26 -10 56 -23z
m-426 -382 c30 -20 98 -56 150 -81 l94 -46 -43 -32 c-61 -46 -187 -129 -224
-149 -31 -15 -35 -15 -65 0 -38 20 -164 103 -225 149 l-42 32 102 51 c56 27
122 64 147 80 25 17 46 31 47 31 2 1 28 -15 59 -35z"/>
</g>
</svg>
